<?xml version="1.0" encoding="utf-8"?>
<!-- Generator: Adobe Illustrator 24.3.0, SVG Export Plug-In . SVG Version: 6.00 Build 0)  -->
<svg version="1.1" id="Слой_1" xmlns="http://www.w3.org/2000/svg" xmlns:xlink="http://www.w3.org/1999/xlink" x="0px" y="0px"
	 viewBox="0 0 191.4 191.4" style="enable-background:new 0 0 191.4 191.4;" xml:space="preserve">
<style type="text/css">
	.st0{fill:#FFFFFF;}
	.st1{fill:#1D1D1B;}
	.st2{fill:#DD083B;}
	.st3{fill:#DEE0E2;}
	.st4{fill:#005EA9;}
	.st5{fill:#0062AD;}
</style>
<g>
	<g>
		<rect x="143.4" y="90.9" class="st2" width="9.5" height="9.5"/>
		<polygon class="st2" points="143.4,52.8 133.9,52.8 133.9,81.4 124.3,81.4 124.3,100.5 114.8,100.5 114.8,110 86.2,110 
			86.2,119.6 114.8,119.6 114.8,129.1 133.9,129.1 133.9,138.7 143.4,138.7 143.4,110 133.9,110 133.9,90.9 143.4,90.9 		"/>
	</g>
	<g>
		<rect x="38.4" y="90.9" class="st3" width="9.5" height="9.5"/>
		<polygon class="st3" points="67.1,71.8 67.1,81.4 57.5,81.4 57.5,100.5 48,100.5 48,119.6 57.5,119.6 57.5,110 76.6,110 
			76.6,90.9 86.2,90.9 86.2,71.8 		"/>
	</g>
	<g>
		<polygon class="st4" points="124.3,62.3 124.3,71.8 114.8,71.8 114.8,81.4 86.2,81.4 86.2,90.9 76.6,90.9 76.6,119.6 86.2,119.6 
			86.2,110 114.8,110 114.8,100.5 124.3,100.5 124.3,81.4 133.9,81.4 133.9,62.3 		"/>
		<rect x="95.7" y="62.3" class="st4" width="9.5" height="9.5"/>
	</g>
</g>
</svg>
