<?xml version="1.0" encoding="UTF-8"?>
<svg width="199px" height="34px" viewBox="0 0 199 34" version="1.1" xmlns="http://www.w3.org/2000/svg" xmlns:xlink="http://www.w3.org/1999/xlink">
    <title>Group</title>
    <g id="Page-1" stroke="none" stroke-width="1" fill="none" fill-rule="evenodd">
        <g id="Group" fill="#FFFFFF">
            <polygon id="Path-Copy" fill-rule="nonzero" points="51.7801047 26 51.7801047 19.8314286 58 9 52.6282723 9 49.2356021 14.8771429 45.8664921 9 40 9 46.2198953 19.7585714 46.2198953 26"></polygon>
            <path d="M69.5,9 C71.3118143,9 72.9392405,9.3852459 74.3822785,10.1557377 C75.8253165,10.9262295 76.9556962,11.9959016 77.7734177,13.3647541 C78.5911392,14.7336066 79,16.2786885 79,18 C79,19.7213115 78.5911392,21.2663934 77.7734177,22.6352459 C76.9556962,24.0040984 75.8253165,25.0737705 74.3822785,25.8442623 C72.9392405,26.6147541 71.3118143,27 69.5,27 C67.6881857,27 66.0607595,26.6147541 64.6177215,25.8442623 C63.1746835,25.0737705 62.0443038,24.0040984 61.2265823,22.6352459 C60.4088608,21.2663934 60,19.7213115 60,18 C60,16.2786885 60.4088608,14.7336066 61.2265823,13.3647541 C62.0443038,11.9959016 63.1746835,10.9262295 64.6177215,10.1557377 C66.0607595,9.3852459 67.6881857,9 69.5,9 Z M69.5,13.6967213 C68.7945148,13.6967213 68.157173,13.8729508 67.5879747,14.2254098 C67.0187764,14.5778689 66.5658228,15.0778689 66.2291139,15.7254098 C65.8924051,16.3729508 65.7240506,17.1311475 65.7240506,18 C65.7240506,18.8688525 65.8924051,19.6270492 66.2291139,20.2745902 C66.5658228,20.9221311 67.0187764,21.4221311 67.5879747,21.7745902 C68.157173,22.1270492 68.7945148,22.3032787 69.5,22.3032787 C70.2054852,22.3032787 70.842827,22.1270492 71.4120253,21.7745902 C71.9812236,21.4221311 72.4341772,20.9221311 72.7708861,20.2745902 C73.1075949,19.6270492 73.2759494,18.8688525 73.2759494,18 C73.2759494,17.1311475 73.1075949,16.3729508 72.7708861,15.7254098 C72.4341772,15.0778689 71.9812236,14.5778689 71.4120253,14.2254098 C70.842827,13.8729508 70.2054852,13.6967213 69.5,13.6967213 Z" id="Combined-Shape" fill-rule="nonzero"></path>
            <path d="M91,26 C93.5180841,26 95.4809384,25.3114525 96.888563,23.9343575 C98.2961877,22.5572626 99,20.6261639 99,18.1410615 L99,18.1410615 L99,9 L93.5571848,9 L93.5571848,17.9748603 C93.5571848,19.1936685 93.342131,20.0800745 92.9120235,20.6340782 C92.4819159,21.1880819 91.8602151,21.4650838 91.0469208,21.4650838 C90.2336266,21.4650838 89.6119257,21.1880819 89.1818182,20.6340782 C88.7517107,20.0800745 88.5366569,19.1936685 88.5366569,17.9748603 L88.5366569,17.9748603 L88.5366569,9 L83,9 L83,18.1410615 C83,20.6261639 83.7038123,22.5572626 85.111437,23.9343575 C86.5190616,25.3114525 88.4819159,26 91,26 Z" id="Path-Copy-4" fill-rule="nonzero"></path>
            <path d="M112.417614,27 C114.059659,27 115.524621,26.704918 116.8125,26.1147541 C118.100379,25.5245902 119.162879,24.6721311 120,23.557377 L120,23.557377 L116.401989,20.2868852 C115.355587,21.6311475 114.124053,22.3032787 112.707386,22.3032787 C111.516098,22.3032787 110.558239,21.9139344 109.833807,21.1352459 C109.109375,20.3565574 108.747159,19.3114754 108.747159,18 C108.747159,16.6885246 109.109375,15.6434426 109.833807,14.8647541 C110.558239,14.0860656 111.516098,13.6967213 112.707386,13.6967213 C114.124053,13.6967213 115.355587,14.3688525 116.401989,15.7131148 L116.401989,15.7131148 L120,12.442623 C119.162879,11.3278689 118.100379,10.4754098 116.8125,9.8852459 C115.524621,9.29508197 114.059659,9 112.417614,9 C110.630682,9 109.020833,9.38114754 107.588068,10.1434426 C106.155303,10.9057377 105.032434,11.9713115 104.21946,13.3401639 C103.406487,14.7090164 103,16.2622951 103,18 C103,19.7377049 103.406487,21.2909836 104.21946,22.6598361 C105.032434,24.0286885 106.155303,25.0942623 107.588068,25.8565574 C109.020833,26.6188525 110.630682,27 112.417614,27 Z" id="Path-Copy-5" fill-rule="nonzero"></path>
            <path d="M132.035768,9 L132.417122,9.00539683 C133.800243,9.04497354 135.016393,9.30222222 136.065574,9.77714286 C137.210134,10.2952381 138.092399,11.04 138.71237,12.0114286 C139.33234,12.9828571 139.642325,14.1161905 139.642325,15.4114286 C139.642325,16.6257143 139.372081,17.6861905 138.831595,18.5928571 C138.291108,19.4995238 137.512171,20.22 136.494784,20.7542857 L136.494784,20.7542857 L140,26 L133.991058,26 L131.153502,21.7257143 L129.627422,21.7257143 L129.627422,26 L124,26 L124,9 L132.035768,9 Z M131.678092,13.42 L129.627422,13.42 L129.627422,17.4028571 L131.678092,17.4028571 C132.441133,17.4028571 133.013413,17.2288095 133.394933,16.8807143 C133.776453,16.532619 133.967213,16.0428571 133.967213,15.4114286 C133.967213,14.78 133.776453,14.2902381 133.394933,13.9421429 C133.013413,13.5940476 132.441133,13.42 131.678092,13.42 L131.678092,13.42 Z" id="Combined-Shape" fill-rule="nonzero"></path>
            <path d="M155.748815,9 L163,26 L157.218009,26 L156.104265,23.0371429 L149.800948,23.0371429 L148.687204,26 L143,26 L150.251185,9 L155.748815,9 Z M152.952607,14.6342857 L151.341232,18.9085714 L154.563981,18.9085714 L152.952607,14.6342857 Z" id="Combined-Shape" fill-rule="nonzero"></path>
            <polygon id="Path-Copy-10" fill-rule="nonzero" points="171.806678 26 171.806678 20.56 178.991213 20.56 178.991213 16.2371429 171.806678 16.2371429 171.806678 13.3228571 180 13.3228571 180 9 166 9 166 26"></polygon>
            <polygon id="Path-Copy-11" fill-rule="nonzero" points="193.922601 26 193.922601 13.4442857 199 13.4442857 199 9 183 9 183 13.4442857 188.077399 13.4442857 188.077399 26"></polygon>
            <g id="Combined-Shape" transform="translate(15.000000, 17.000000) scale(1, -1) translate(-15.000000, -17.000000) ">
                <path d="M14.4200461,17.9517 L27.476,25.333 L21.6471401,28.7595254 L14.4337567,33.0157 L7.2203734,28.7595254 L1.39,25.332 L14.4200461,17.9517 Z M12.767,-0.001 L12.7670461,15.0147 L12.7430461,15.0277 L10.9662251,15.9988761 L10.9960461,16.0157 L0.002,22.232 L0.00699006307,16.0157 L-7.04621546e-14,7.5157 L7.2203734,3.27187464 L12.767,-0.001 Z M16.1,-0.001 L21.6471401,3.27187464 L28.8675135,7.5157 L28.8605234,16.0157 L28.865,22.231 L16.1000461,15.0137 L16.1,-0.001 Z"></path>
            </g>
        </g>
    </g>
</svg>